<svg width="314" height="77" viewBox="0 0 314 77" fill="none" xmlns="http://www.w3.org/2000/svg">
<path d="M19.064 18.744L20.888 18.648C21.336 18.648 21.56 18.776 21.56 19.032C21.56 19.672 20.792 19.992 19.256 19.992C15.352 19.992 11.192 18.712 6.776 16.152C2.36 13.592 0.152 10.904 0.152 8.088C0.152 4.376 2.008 2.52 5.72 2.52C6.616 2.52 7.608 2.616 8.696 2.808C30.392 8.376 45.88 11.16 55.16 11.16C60.856 11.16 63.704 9.912 63.704 7.416C63.704 5.688 61.912 4.248 58.328 3.096L53.144 1.08C53.144 0.759996 53.56 0.599997 54.392 0.599997C56.888 0.599997 59.544 1.72 62.36 3.96C65.176 6.136 66.584 8.312 66.584 10.488C66.584 12.984 64.152 14.232 59.288 14.232H58.904C52.312 13.976 46.84 13.4 42.488 12.504C30.2 10.008 23.224 8.6 21.56 8.28C19.896 7.896 18.552 7.608 17.528 7.416C16.568 7.224 15.288 7 13.688 6.744C10.872 6.296 8.216 6.072 5.72 6.072C3.224 6.072 1.976 6.744 1.976 8.088C1.976 10.456 4.12 12.824 8.408 15.192C12.76 17.56 16.312 18.744 19.064 18.744ZM46.52 15.096C46.52 15.288 46.36 15.704 46.04 16.344L39.992 22.392C29.048 34.616 23.576 45.432 23.576 54.84C23.576 56.632 24.504 57.528 26.36 57.528C27.64 57.528 29.176 57.08 30.968 56.184L33.368 54.84C33.624 54.84 33.752 54.904 33.752 55.032C33.752 55.8 32.728 56.568 30.68 57.336C28.632 58.168 27.256 58.584 26.552 58.584C24.824 58.584 23.48 57.976 22.52 56.76C21.56 55.608 21.08 53.784 21.08 51.288C21.08 48.856 22.36 44.568 24.92 38.424C27.544 32.28 30.744 26.616 34.52 21.432C38.36 16.248 41.624 13.656 44.312 13.656C45.784 13.656 46.52 14.136 46.52 15.096ZM71.1005 31.032L68.7005 30.648C68.8285 31.928 68.8925 32.952 68.8925 33.72C68.8925 39.032 67.5485 43.736 64.8605 47.832C62.1725 51.864 58.8125 53.88 54.7805 53.88C49.5965 53.88 47.0045 51.16 47.0045 45.72C47.0045 43.544 47.4845 41.24 48.4445 38.808C49.4685 36.312 50.7165 34.296 52.1885 32.76C51.4845 31.608 51.1325 30.104 51.1325 28.248C51.1325 26.392 51.9005 24.728 53.4365 23.256C54.9725 21.72 56.8605 20.952 59.1005 20.952C63.3245 20.952 66.1405 23.128 67.5485 27.48C70.5565 28.056 72.0605 28.76 72.0605 29.592C72.0605 30.552 71.7405 31.032 71.1005 31.032ZM57.9485 23.64C56.6045 23.64 55.4845 24.248 54.5885 25.464C53.6925 26.68 53.2445 27.928 53.2445 29.208C53.2445 30.424 53.3405 31.32 53.5325 31.896C57.8845 28.632 60.8925 27 62.5565 27H62.8445C62.0125 24.76 60.3805 23.64 57.9485 23.64ZM56.8925 35.16C57.5325 35.608 58.0445 35.832 58.4285 35.832C58.8125 35.768 59.0365 35.736 59.1005 35.736C59.4205 35.736 59.5805 35.896 59.5805 36.216C59.5805 36.728 59.1325 36.984 58.2365 36.984C57.4045 36.984 56.6365 36.76 55.9325 36.312C52.5405 40.28 50.8445 44.024 50.8445 47.544C50.8445 51 52.1245 52.728 54.6845 52.728C57.3085 52.728 59.7725 50.68 62.0765 46.584C64.3805 42.424 65.5325 38.456 65.5325 34.68C65.5325 33.016 65.2445 31.672 64.6685 30.648C62.2365 31.032 59.6445 32.536 56.8925 35.16ZM152.794 25.176C152.794 28.824 151.738 32.504 149.626 36.216C147.578 39.928 144.73 43.288 141.082 46.296C137.498 49.304 132.954 51.736 127.45 53.592C122.01 55.512 116.186 56.472 109.978 56.472C103.834 56.472 100.762 55.96 100.762 54.936C100.762 54.36 101.242 54.072 102.202 54.072H103.738C104.186 54.136 104.762 54.168 105.466 54.168C111.802 54.168 117.818 53.176 123.514 51.192C129.21 49.208 133.882 46.712 137.53 43.704C141.242 40.632 144.154 37.368 146.266 33.912C148.442 30.392 149.53 27.064 149.53 23.928C149.53 19 147.578 15.096 143.674 12.216C139.77 9.272 134.746 7.8 128.602 7.8H127.93C119.162 7.992 106.842 11 90.9695 16.824C89.6255 16.824 88.9535 15.832 88.9535 13.848C88.9535 13.208 89.2415 12.76 89.8175 12.504C90.3935 12.184 92.2495 11.576 95.3855 10.68C106.842 7.224 117.338 5.496 126.874 5.496C134.426 5.496 140.634 7.288 145.498 10.872C150.362 14.456 152.794 19.224 152.794 25.176ZM98.8415 60.792L98.6495 60.888C97.6255 60.888 96.7935 60.28 96.1535 59.064C95.5135 57.912 95.1935 56.216 95.1935 53.976C95.1935 46.04 99.6735 34.2 108.634 18.456C108.634 18.2 108.954 17.528 109.594 16.44C110.298 15.288 110.874 14.328 111.322 13.56C112.218 11.96 112.986 11.16 113.626 11.16C114.33 11.16 115.13 11.352 116.026 11.736C116.922 12.056 117.37 12.408 117.37 12.792C115.706 15.672 113.978 18.488 112.186 21.24C102.394 38.2 97.4975 49.784 97.4975 55.992C97.4975 56.696 97.7215 57.624 98.1695 58.776C98.6175 59.928 98.8415 60.6 98.8415 60.792ZM176.382 31.032L173.982 30.648C174.11 31.928 174.174 32.952 174.174 33.72C174.174 39.032 172.83 43.736 170.142 47.832C167.454 51.864 164.094 53.88 160.062 53.88C154.878 53.88 152.286 51.16 152.286 45.72C152.286 43.544 152.766 41.24 153.726 38.808C154.75 36.312 155.998 34.296 157.47 32.76C156.766 31.608 156.414 30.104 156.414 28.248C156.414 26.392 157.182 24.728 158.718 23.256C160.254 21.72 162.142 20.952 164.382 20.952C168.606 20.952 171.422 23.128 172.83 27.48C175.838 28.056 177.342 28.76 177.342 29.592C177.342 30.552 177.022 31.032 176.382 31.032ZM163.23 23.64C161.886 23.64 160.766 24.248 159.87 25.464C158.974 26.68 158.526 27.928 158.526 29.208C158.526 30.424 158.622 31.32 158.814 31.896C163.166 28.632 166.174 27 167.838 27H168.126C167.294 24.76 165.662 23.64 163.23 23.64ZM162.174 35.16C162.814 35.608 163.326 35.832 163.71 35.832C164.094 35.768 164.318 35.736 164.382 35.736C164.702 35.736 164.862 35.896 164.862 36.216C164.862 36.728 164.414 36.984 163.518 36.984C162.686 36.984 161.918 36.76 161.214 36.312C157.822 40.28 156.126 44.024 156.126 47.544C156.126 51 157.406 52.728 159.966 52.728C162.59 52.728 165.054 50.68 167.358 46.584C169.662 42.424 170.814 38.456 170.814 34.68C170.814 33.016 170.526 31.672 169.95 30.648C167.518 31.032 164.926 32.536 162.174 35.16ZM216.123 36.888L219.483 36.792H222.651C225.531 34.488 229.019 31.288 233.115 27.192C237.211 23.096 240.091 19.832 241.755 17.4L244.731 13.08C244.987 13.08 245.115 13.432 245.115 14.136C245.115 17.016 242.843 20.952 238.299 25.944L228.315 36.504L239.739 35.352C241.787 30.936 244.027 26.456 246.459 21.912C248.891 17.304 250.395 14.424 250.971 13.272C251.611 12.056 252.219 10.872 252.795 9.72C253.435 8.504 254.139 7.384 254.907 6.36C255.675 5.336 256.379 4.824 257.019 4.824C257.723 4.824 258.555 5.048 259.515 5.496C260.539 5.88 261.051 6.296 261.051 6.744C260.219 7.96 259.291 9.4 258.267 11.064C257.307 12.728 256.251 14.52 255.099 16.44C243.771 35.384 238.107 48.664 238.107 56.28C238.107 57.176 238.363 58.296 238.875 59.64C239.515 61.176 239.707 61.944 239.451 61.944C238.171 61.944 237.115 61.144 236.283 59.544C235.515 58.008 235.131 55.992 235.131 53.496C235.131 51.064 236.443 45.816 239.067 37.752C238.171 37.752 235.707 38.072 231.675 38.712C227.643 39.352 225.147 39.8 224.187 40.056C213.691 49.144 205.499 53.688 199.611 53.688C197.115 53.688 195.195 52.856 193.851 51.192C194.107 51.128 194.267 51.096 194.331 51.096L197.115 51.576C201.851 51.576 208.955 47.864 218.427 40.44V40.344L213.243 40.536C211.707 40.536 210.363 40.12 209.211 39.288C208.123 38.392 207.579 37.304 207.579 36.024L207.771 35.832C207.771 35.768 207.803 35.736 207.867 35.736L208.155 35.928C208.795 36.568 211.451 36.888 216.123 36.888ZM258.658 24.6L255.394 25.368C255.01 25.368 254.818 25.144 254.818 24.696C254.818 23.672 256.226 23.16 259.042 23.16C263.458 23.16 265.666 24.664 265.666 27.672C265.666 28.632 264.738 31.224 262.882 35.448C267.81 28.6 272.194 25.176 276.034 25.176C279.106 25.176 280.642 26.936 280.642 30.456C280.642 35.128 278.338 40.216 273.73 45.72C269.186 51.224 264.77 53.976 260.482 53.976C258.306 53.976 256.45 53.496 254.914 52.536C250.818 61.56 248.77 68.472 248.77 73.272C248.77 74.808 249.346 75.576 250.498 75.576L253.474 74.52C253.602 74.52 253.666 74.584 253.666 74.712C253.666 75.16 253.218 75.576 252.322 75.96C251.426 76.408 250.562 76.632 249.73 76.632C248.898 76.632 248.002 76.056 247.042 74.904C246.018 73.752 245.506 72.568 245.506 71.352C245.506 65.976 247.49 58.552 251.458 49.08C250.818 47.864 250.498 47.032 250.498 46.584C250.498 46.136 250.594 45.912 250.786 45.912L250.978 46.008C251.17 46.84 251.49 47.512 251.938 48.024C257.762 34.392 260.674 27.096 260.674 26.136C260.674 25.112 260.002 24.6 258.658 24.6ZM276.13 29.976C276.13 28.312 275.586 27.48 274.498 27.48C272.386 27.48 269.506 29.592 265.858 33.816C262.274 38.04 258.818 43.768 255.49 51V51.096C256.322 51.416 257.538 51.576 259.138 51.576C262.85 51.576 266.594 49.08 270.37 44.088C274.21 39.096 276.13 34.392 276.13 29.976ZM291.19 24.6L287.926 25.368C287.542 25.368 287.35 25.144 287.35 24.696C287.35 23.672 288.758 23.16 291.574 23.16C295.99 23.16 298.198 24.664 298.198 27.672C298.198 28.632 297.27 31.224 295.414 35.448C300.342 28.6 304.726 25.176 308.566 25.176C311.638 25.176 313.174 26.936 313.174 30.456C313.174 35.128 310.87 40.216 306.262 45.72C301.718 51.224 297.302 53.976 293.014 53.976C290.838 53.976 288.982 53.496 287.446 52.536C283.35 61.56 281.302 68.472 281.302 73.272C281.302 74.808 281.878 75.576 283.03 75.576L286.006 74.52C286.134 74.52 286.198 74.584 286.198 74.712C286.198 75.16 285.75 75.576 284.854 75.96C283.958 76.408 283.094 76.632 282.262 76.632C281.43 76.632 280.533 76.056 279.573 74.904C278.549 73.752 278.037 72.568 278.037 71.352C278.037 65.976 280.021 58.552 283.99 49.08C283.35 47.864 283.03 47.032 283.03 46.584C283.03 46.136 283.126 45.912 283.318 45.912L283.51 46.008C283.702 46.84 284.022 47.512 284.47 48.024C290.294 34.392 293.206 27.096 293.206 26.136C293.206 25.112 292.534 24.6 291.19 24.6ZM308.661 29.976C308.661 28.312 308.118 27.48 307.03 27.48C304.918 27.48 302.038 29.592 298.39 33.816C294.806 38.04 291.35 43.768 288.022 51V51.096C288.854 51.416 290.07 51.576 291.67 51.576C295.382 51.576 299.126 49.08 302.902 44.088C306.742 39.096 308.661 34.392 308.661 29.976Z" fill="#764CEF"/>
</svg>
